<svg id="visual" viewBox="0 0 960 540" width="960" height="540" xmlns="http://www.w3.org/2000/svg" xmlns:xlink="http://www.w3.org/1999/xlink" version="1.1"><g stroke-width="1" stroke-linejoin="bevel"><path d="M441 264L465 230L403 166Z" fill="#1d4e6b" stroke="#1d4e6b"></path><path d="M403 166L352 202L441 264Z" fill="#112e42" stroke="#112e42"></path><path d="M352 202L359 274L441 264Z" fill="#112e42" stroke="#112e42"></path><path d="M465 230L480 173L403 166Z" fill="#15384f" stroke="#15384f"></path><path d="M359 274L388 314L441 264Z" fill="#297ea6" stroke="#297ea6"></path><path d="M388 314L425 328L441 264Z" fill="#246688" stroke="#246688"></path><path d="M548 213L541 203L547 239Z" fill="#1d4e6b" stroke="#1d4e6b"></path><path d="M352 202L304 242L359 274Z" fill="#19435d" stroke="#19435d"></path><path d="M359 274L316 322L388 314Z" fill="#00101c" stroke="#00101c"></path><path d="M450 91L412 97L403 166Z" fill="#112e42" stroke="#112e42"></path><path d="M403 166L352 88L352 202Z" fill="#246688" stroke="#246688"></path><path d="M245 191L271 246L304 242Z" fill="#00101c" stroke="#00101c"></path><path d="M412 97L386 94L403 166Z" fill="#277297" stroke="#277297"></path><path d="M476 334L465 230L441 264Z" fill="#205a7a" stroke="#205a7a"></path><path d="M465 230L541 203L480 173Z" fill="#081a28" stroke="#081a28"></path><path d="M480 173L450 91L403 166Z" fill="#297ea6" stroke="#297ea6"></path><path d="M412 97L388 91L386 94Z" fill="#19435d" stroke="#19435d"></path><path d="M541 203L542 198L480 173Z" fill="#0c2435" stroke="#0c2435"></path><path d="M425 328L476 334L441 264Z" fill="#297ea6" stroke="#297ea6"></path><path d="M506 117L450 91L480 173Z" fill="#19435d" stroke="#19435d"></path><path d="M412 97L460 0L388 91Z" fill="#15384f" stroke="#15384f"></path><path d="M541 203L548 213L542 198Z" fill="#112e42" stroke="#112e42"></path><path d="M547 239L541 203L465 230Z" fill="#19435d" stroke="#19435d"></path><path d="M476 334L547 239L465 230Z" fill="#081a28" stroke="#081a28"></path><path d="M540 134L506 117L480 173Z" fill="#081a28" stroke="#081a28"></path><path d="M304 242L316 322L359 274Z" fill="#00101c" stroke="#00101c"></path><path d="M388 314L392 369L425 328Z" fill="#00101c" stroke="#00101c"></path><path d="M425 328L402 390L476 334Z" fill="#277297" stroke="#277297"></path><path d="M360 0L352 88L388 91Z" fill="#19435d" stroke="#19435d"></path><path d="M388 91L352 88L386 94Z" fill="#00101c" stroke="#00101c"></path><path d="M386 94L352 88L403 166Z" fill="#081a28" stroke="#081a28"></path><path d="M245 191L304 242L352 202Z" fill="#081a28" stroke="#081a28"></path><path d="M304 242L271 246L316 322Z" fill="#112e42" stroke="#112e42"></path><path d="M316 322L392 369L388 314Z" fill="#081a28" stroke="#081a28"></path><path d="M656 173L540 134L542 198Z" fill="#00101c" stroke="#00101c"></path><path d="M542 198L540 134L480 173Z" fill="#0c2435" stroke="#0c2435"></path><path d="M352 88L293 120L352 202Z" fill="#297ea6" stroke="#297ea6"></path><path d="M293 120L245 191L352 202Z" fill="#081a28" stroke="#081a28"></path><path d="M322 426L402 390L392 369Z" fill="#205a7a" stroke="#205a7a"></path><path d="M392 369L402 390L425 328Z" fill="#112e42" stroke="#112e42"></path><path d="M546 59L496 56L506 117Z" fill="#00101c" stroke="#00101c"></path><path d="M506 117L496 56L450 91Z" fill="#19435d" stroke="#19435d"></path><path d="M450 91L460 0L412 97Z" fill="#205a7a" stroke="#205a7a"></path><path d="M271 246L260 321L316 322Z" fill="#277297" stroke="#277297"></path><path d="M316 322L301 370L392 369Z" fill="#205a7a" stroke="#205a7a"></path><path d="M183 316L260 321L271 246Z" fill="#277297" stroke="#277297"></path><path d="M260 341L301 370L316 322Z" fill="#277297" stroke="#277297"></path><path d="M352 88L293 72L293 120Z" fill="#1d4e6b" stroke="#1d4e6b"></path><path d="M293 120L221 161L245 191Z" fill="#112e42" stroke="#112e42"></path><path d="M327 0L293 72L352 88Z" fill="#246688" stroke="#246688"></path><path d="M524 386L544 357L476 334Z" fill="#1d4e6b" stroke="#1d4e6b"></path><path d="M476 334L544 357L547 239Z" fill="#205a7a" stroke="#205a7a"></path><path d="M547 239L597 273L548 213Z" fill="#19435d" stroke="#19435d"></path><path d="M544 357L597 273L547 239Z" fill="#0c2435" stroke="#0c2435"></path><path d="M548 213L656 173L542 198Z" fill="#1d4e6b" stroke="#1d4e6b"></path><path d="M196 344L260 341L260 321Z" fill="#297ea6" stroke="#297ea6"></path><path d="M260 321L260 341L316 322Z" fill="#277297" stroke="#277297"></path><path d="M214 143L221 161L293 120Z" fill="#112e42" stroke="#112e42"></path><path d="M245 191L194 204L271 246Z" fill="#0c2435" stroke="#0c2435"></path><path d="M476 446L524 386L476 334Z" fill="#00101c" stroke="#00101c"></path><path d="M540 134L546 59L506 117Z" fill="#15384f" stroke="#15384f"></path><path d="M649 96L546 59L540 134Z" fill="#246688" stroke="#246688"></path><path d="M234 68L214 143L293 120Z" fill="#277297" stroke="#277297"></path><path d="M221 161L194 204L245 191Z" fill="#19435d" stroke="#19435d"></path><path d="M214 143L194 204L221 161Z" fill="#081a28" stroke="#081a28"></path><path d="M322 426L412 441L402 390Z" fill="#246688" stroke="#246688"></path><path d="M402 390L476 446L476 334Z" fill="#246688" stroke="#246688"></path><path d="M485 0L460 0L496 56Z" fill="#1d4e6b" stroke="#1d4e6b"></path><path d="M496 56L460 0L450 91Z" fill="#297ea6" stroke="#297ea6"></path><path d="M460 0L360 0L388 91Z" fill="#277297" stroke="#277297"></path><path d="M293 72L234 68L293 120Z" fill="#0c2435" stroke="#0c2435"></path><path d="M232 447L322 426L301 370Z" fill="#00101c" stroke="#00101c"></path><path d="M301 370L322 426L392 369Z" fill="#081a28" stroke="#081a28"></path><path d="M546 59L485 0L496 56Z" fill="#205a7a" stroke="#205a7a"></path><path d="M233 0L234 68L293 72Z" fill="#081a28" stroke="#081a28"></path><path d="M131 267L156 270L194 204Z" fill="#15384f" stroke="#15384f"></path><path d="M360 0L327 0L352 88Z" fill="#112e42" stroke="#112e42"></path><path d="M412 441L476 446L402 390Z" fill="#297ea6" stroke="#297ea6"></path><path d="M609 361L649 264L597 273Z" fill="#297ea6" stroke="#297ea6"></path><path d="M597 273L656 231L548 213Z" fill="#205a7a" stroke="#205a7a"></path><path d="M609 361L597 273L544 357Z" fill="#00101c" stroke="#00101c"></path><path d="M609 361L544 357L609 394Z" fill="#081a28" stroke="#081a28"></path><path d="M609 394L544 357L524 386Z" fill="#1d4e6b" stroke="#1d4e6b"></path><path d="M649 264L656 231L597 273Z" fill="#19435d" stroke="#19435d"></path><path d="M656 231L656 173L548 213Z" fill="#19435d" stroke="#19435d"></path><path d="M156 270L183 316L271 246Z" fill="#00101c" stroke="#00101c"></path><path d="M260 341L232 447L301 370Z" fill="#0c2435" stroke="#0c2435"></path><path d="M183 316L196 344L260 321Z" fill="#112e42" stroke="#112e42"></path><path d="M717 221L670 211L656 231Z" fill="#081a28" stroke="#081a28"></path><path d="M656 231L670 211L656 173Z" fill="#19435d" stroke="#19435d"></path><path d="M476 446L539 443L524 386Z" fill="#19435d" stroke="#19435d"></path><path d="M194 204L156 270L271 246Z" fill="#19435d" stroke="#19435d"></path><path d="M183 316L140 354L196 344Z" fill="#277297" stroke="#277297"></path><path d="M131 267L194 204L96 190Z" fill="#1d4e6b" stroke="#1d4e6b"></path><path d="M233 0L205 59L234 68Z" fill="#112e42" stroke="#112e42"></path><path d="M234 68L205 59L214 143Z" fill="#081a28" stroke="#081a28"></path><path d="M563 448L609 394L524 386Z" fill="#0c2435" stroke="#0c2435"></path><path d="M609 361L728 331L649 264Z" fill="#00101c" stroke="#00101c"></path><path d="M649 264L717 221L656 231Z" fill="#15384f" stroke="#15384f"></path><path d="M677 109L649 96L656 173Z" fill="#15384f" stroke="#15384f"></path><path d="M656 173L649 96L540 134Z" fill="#277297" stroke="#277297"></path><path d="M546 59L569 0L485 0Z" fill="#277297" stroke="#277297"></path><path d="M649 96L569 0L546 59Z" fill="#0c2435" stroke="#0c2435"></path><path d="M553 540L563 448L539 443Z" fill="#246688" stroke="#246688"></path><path d="M539 443L563 448L524 386Z" fill="#15384f" stroke="#15384f"></path><path d="M412 441L439 494L476 446Z" fill="#1d4e6b" stroke="#1d4e6b"></path><path d="M476 446L511 540L539 443Z" fill="#246688" stroke="#246688"></path><path d="M397 517L439 494L412 441Z" fill="#1d4e6b" stroke="#1d4e6b"></path><path d="M327 0L233 0L293 72Z" fill="#112e42" stroke="#112e42"></path><path d="M96 190L194 204L214 143Z" fill="#112e42" stroke="#112e42"></path><path d="M156 270L140 354L183 316Z" fill="#277297" stroke="#277297"></path><path d="M740 136L677 109L656 173Z" fill="#297ea6" stroke="#297ea6"></path><path d="M649 96L648 0L569 0Z" fill="#19435d" stroke="#19435d"></path><path d="M259 475L331 494L322 426Z" fill="#297ea6" stroke="#297ea6"></path><path d="M322 426L331 494L412 441Z" fill="#081a28" stroke="#081a28"></path><path d="M185 427L232 447L196 344Z" fill="#0c2435" stroke="#0c2435"></path><path d="M196 344L232 447L260 341Z" fill="#081a28" stroke="#081a28"></path><path d="M624 473L646 404L609 394Z" fill="#246688" stroke="#246688"></path><path d="M609 394L646 404L609 361Z" fill="#277297" stroke="#277297"></path><path d="M331 494L397 517L412 441Z" fill="#081a28" stroke="#081a28"></path><path d="M439 494L482 540L476 446Z" fill="#15384f" stroke="#15384f"></path><path d="M232 447L259 475L322 426Z" fill="#081a28" stroke="#081a28"></path><path d="M331 494L384 540L397 517Z" fill="#00101c" stroke="#00101c"></path><path d="M751 283L717 221L649 264Z" fill="#112e42" stroke="#112e42"></path><path d="M670 211L717 221L656 173Z" fill="#297ea6" stroke="#297ea6"></path><path d="M131 267L140 354L156 270Z" fill="#112e42" stroke="#112e42"></path><path d="M232 447L205 470L259 475Z" fill="#205a7a" stroke="#205a7a"></path><path d="M140 354L185 427L196 344Z" fill="#297ea6" stroke="#297ea6"></path><path d="M111 95L214 143L205 59Z" fill="#19435d" stroke="#19435d"></path><path d="M111 95L96 190L214 143Z" fill="#297ea6" stroke="#297ea6"></path><path d="M131 267L83 342L140 354Z" fill="#081a28" stroke="#081a28"></path><path d="M669 24L648 0L649 96Z" fill="#1d4e6b" stroke="#1d4e6b"></path><path d="M669 24L649 96L677 109Z" fill="#0c2435" stroke="#0c2435"></path><path d="M733 72L669 24L677 109Z" fill="#246688" stroke="#246688"></path><path d="M338 540L384 540L331 494Z" fill="#19435d" stroke="#19435d"></path><path d="M397 517L482 540L439 494Z" fill="#205a7a" stroke="#205a7a"></path><path d="M128 41L111 95L205 59Z" fill="#1d4e6b" stroke="#1d4e6b"></path><path d="M165 477L205 470L185 427Z" fill="#00101c" stroke="#00101c"></path><path d="M185 427L205 470L232 447Z" fill="#0c2435" stroke="#0c2435"></path><path d="M264 540L338 540L331 494Z" fill="#0c2435" stroke="#0c2435"></path><path d="M384 540L482 540L397 517Z" fill="#081a28" stroke="#081a28"></path><path d="M563 448L624 473L609 394Z" fill="#112e42" stroke="#112e42"></path><path d="M264 540L331 494L259 475Z" fill="#112e42" stroke="#112e42"></path><path d="M553 540L624 473L563 448Z" fill="#19435d" stroke="#19435d"></path><path d="M646 404L728 331L609 361Z" fill="#15384f" stroke="#15384f"></path><path d="M57 173L79 220L96 190Z" fill="#297ea6" stroke="#297ea6"></path><path d="M96 190L79 220L131 267Z" fill="#246688" stroke="#246688"></path><path d="M741 343L728 331L728 417Z" fill="#277297" stroke="#277297"></path><path d="M233 0L159 0L205 59Z" fill="#297ea6" stroke="#297ea6"></path><path d="M159 0L128 41L205 59Z" fill="#15384f" stroke="#15384f"></path><path d="M482 540L511 540L476 446Z" fill="#19435d" stroke="#19435d"></path><path d="M717 221L740 136L656 173Z" fill="#00101c" stroke="#00101c"></path><path d="M792 198L740 136L717 221Z" fill="#112e42" stroke="#112e42"></path><path d="M728 331L751 283L649 264Z" fill="#297ea6" stroke="#297ea6"></path><path d="M159 0L143 0L128 41Z" fill="#246688" stroke="#246688"></path><path d="M511 540L553 540L539 443Z" fill="#205a7a" stroke="#205a7a"></path><path d="M728 417L728 331L646 404Z" fill="#112e42" stroke="#112e42"></path><path d="M728 331L741 343L751 283Z" fill="#297ea6" stroke="#297ea6"></path><path d="M32 322L83 342L131 267Z" fill="#1d4e6b" stroke="#1d4e6b"></path><path d="M111 415L165 477L185 427Z" fill="#246688" stroke="#246688"></path><path d="M740 136L733 72L677 109Z" fill="#00101c" stroke="#00101c"></path><path d="M669 24L725 0L648 0Z" fill="#277297" stroke="#277297"></path><path d="M205 470L264 540L259 475Z" fill="#277297" stroke="#277297"></path><path d="M169 540L264 540L205 470Z" fill="#0c2435" stroke="#0c2435"></path><path d="M111 415L185 427L140 354Z" fill="#246688" stroke="#246688"></path><path d="M44 98L57 173L111 95Z" fill="#0c2435" stroke="#0c2435"></path><path d="M111 95L57 173L96 190Z" fill="#277297" stroke="#277297"></path><path d="M79 220L32 322L131 267Z" fill="#00101c" stroke="#00101c"></path><path d="M44 98L111 95L45 71Z" fill="#297ea6" stroke="#297ea6"></path><path d="M83 342L111 415L140 354Z" fill="#1d4e6b" stroke="#1d4e6b"></path><path d="M804 217L785 219L751 283Z" fill="#1d4e6b" stroke="#1d4e6b"></path><path d="M751 283L785 219L717 221Z" fill="#1d4e6b" stroke="#1d4e6b"></path><path d="M848 134L791 27L733 72Z" fill="#112e42" stroke="#112e42"></path><path d="M667 493L728 417L646 404Z" fill="#00101c" stroke="#00101c"></path><path d="M741 343L775 354L751 283Z" fill="#00101c" stroke="#00101c"></path><path d="M667 493L646 404L624 473Z" fill="#15384f" stroke="#15384f"></path><path d="M640 540L667 493L624 473Z" fill="#1d4e6b" stroke="#1d4e6b"></path><path d="M728 417L751 387L741 343Z" fill="#246688" stroke="#246688"></path><path d="M804 217L792 198L785 219Z" fill="#081a28" stroke="#081a28"></path><path d="M785 219L792 198L717 221Z" fill="#277297" stroke="#277297"></path><path d="M791 27L725 0L733 72Z" fill="#19435d" stroke="#19435d"></path><path d="M733 72L725 0L669 24Z" fill="#246688" stroke="#246688"></path><path d="M751 387L775 354L741 343Z" fill="#277297" stroke="#277297"></path><path d="M45 71L111 95L128 41Z" fill="#19435d" stroke="#19435d"></path><path d="M0 214L32 322L79 220Z" fill="#205a7a" stroke="#205a7a"></path><path d="M859 229L804 217L866 295Z" fill="#19435d" stroke="#19435d"></path><path d="M848 134L733 72L740 136Z" fill="#246688" stroke="#246688"></path><path d="M553 540L640 540L624 473Z" fill="#205a7a" stroke="#205a7a"></path><path d="M667 493L701 540L728 417Z" fill="#15384f" stroke="#15384f"></path><path d="M850 416L819 365L751 387Z" fill="#0c2435" stroke="#0c2435"></path><path d="M751 387L819 365L775 354Z" fill="#246688" stroke="#246688"></path><path d="M0 214L79 220L57 173Z" fill="#15384f" stroke="#15384f"></path><path d="M35 399L65 448L111 415Z" fill="#0c2435" stroke="#0c2435"></path><path d="M70 0L45 71L128 41Z" fill="#081a28" stroke="#081a28"></path><path d="M0 143L0 214L57 173Z" fill="#19435d" stroke="#19435d"></path><path d="M65 448L165 477L111 415Z" fill="#00101c" stroke="#00101c"></path><path d="M106 540L169 540L165 477Z" fill="#112e42" stroke="#112e42"></path><path d="M165 477L169 540L205 470Z" fill="#1d4e6b" stroke="#1d4e6b"></path><path d="M143 0L70 0L128 41Z" fill="#19435d" stroke="#19435d"></path><path d="M0 143L57 173L0 133Z" fill="#19435d" stroke="#19435d"></path><path d="M35 399L111 415L83 342Z" fill="#00101c" stroke="#00101c"></path><path d="M35 399L83 342L32 322Z" fill="#297ea6" stroke="#297ea6"></path><path d="M0 346L35 399L32 322Z" fill="#081a28" stroke="#081a28"></path><path d="M0 133L57 173L44 98Z" fill="#19435d" stroke="#19435d"></path><path d="M0 133L44 98L0 37Z" fill="#112e42" stroke="#112e42"></path><path d="M0 37L44 98L45 71Z" fill="#112e42" stroke="#112e42"></path><path d="M859 229L835 207L804 217Z" fill="#277297" stroke="#277297"></path><path d="M804 217L835 207L792 198Z" fill="#205a7a" stroke="#205a7a"></path><path d="M848 134L740 136L792 198Z" fill="#081a28" stroke="#081a28"></path><path d="M0 214L0 328L32 322Z" fill="#0c2435" stroke="#0c2435"></path><path d="M640 540L701 540L667 493Z" fill="#0c2435" stroke="#0c2435"></path><path d="M775 354L866 295L751 283Z" fill="#00101c" stroke="#00101c"></path><path d="M801 499L751 387L728 417Z" fill="#1d4e6b" stroke="#1d4e6b"></path><path d="M0 328L0 346L32 322Z" fill="#246688" stroke="#246688"></path><path d="M35 540L106 540L65 448Z" fill="#081a28" stroke="#081a28"></path><path d="M840 0L798 0L791 27Z" fill="#1d4e6b" stroke="#1d4e6b"></path><path d="M791 27L798 0L725 0Z" fill="#19435d" stroke="#19435d"></path><path d="M835 207L848 134L792 198Z" fill="#00101c" stroke="#00101c"></path><path d="M889 136L848 134L835 207Z" fill="#112e42" stroke="#112e42"></path><path d="M0 408L65 448L35 399Z" fill="#081a28" stroke="#081a28"></path><path d="M65 448L106 540L165 477Z" fill="#0c2435" stroke="#0c2435"></path><path d="M866 295L804 217L751 283Z" fill="#1d4e6b" stroke="#1d4e6b"></path><path d="M70 0L0 37L45 71Z" fill="#205a7a" stroke="#205a7a"></path><path d="M0 346L0 408L35 399Z" fill="#0c2435" stroke="#0c2435"></path><path d="M819 365L866 295L775 354Z" fill="#15384f" stroke="#15384f"></path><path d="M70 0L0 0L0 37Z" fill="#081a28" stroke="#081a28"></path><path d="M904 65L846 43L848 134Z" fill="#0c2435" stroke="#0c2435"></path><path d="M848 134L846 43L791 27Z" fill="#205a7a" stroke="#205a7a"></path><path d="M889 136L835 207L919 208Z" fill="#19435d" stroke="#19435d"></path><path d="M701 540L801 499L728 417Z" fill="#1d4e6b" stroke="#1d4e6b"></path><path d="M819 365L889 362L866 295Z" fill="#0c2435" stroke="#0c2435"></path><path d="M801 499L850 416L751 387Z" fill="#081a28" stroke="#081a28"></path><path d="M846 43L840 0L791 27Z" fill="#1d4e6b" stroke="#1d4e6b"></path><path d="M919 208L859 229L931 295Z" fill="#112e42" stroke="#112e42"></path><path d="M919 208L835 207L859 229Z" fill="#205a7a" stroke="#205a7a"></path><path d="M846 43L920 0L840 0Z" fill="#297ea6" stroke="#297ea6"></path><path d="M701 540L785 540L801 499Z" fill="#1d4e6b" stroke="#1d4e6b"></path><path d="M801 499L863 458L850 416Z" fill="#19435d" stroke="#19435d"></path><path d="M0 408L0 490L65 448Z" fill="#00101c" stroke="#00101c"></path><path d="M0 490L35 540L65 448Z" fill="#246688" stroke="#246688"></path><path d="M906 393L889 362L850 416Z" fill="#277297" stroke="#277297"></path><path d="M850 416L889 362L819 365Z" fill="#205a7a" stroke="#205a7a"></path><path d="M931 295L859 229L866 295Z" fill="#246688" stroke="#246688"></path><path d="M889 136L904 65L848 134Z" fill="#112e42" stroke="#112e42"></path><path d="M832 540L863 458L801 499Z" fill="#00101c" stroke="#00101c"></path><path d="M960 108L904 65L889 136Z" fill="#19435d" stroke="#19435d"></path><path d="M0 490L0 540L35 540Z" fill="#1d4e6b" stroke="#1d4e6b"></path><path d="M891 461L906 393L850 416Z" fill="#19435d" stroke="#19435d"></path><path d="M889 362L931 295L866 295Z" fill="#0c2435" stroke="#0c2435"></path><path d="M960 307L931 295L960 363Z" fill="#19435d" stroke="#19435d"></path><path d="M919 208L960 183L889 136Z" fill="#297ea6" stroke="#297ea6"></path><path d="M863 458L891 461L850 416Z" fill="#297ea6" stroke="#297ea6"></path><path d="M785 540L832 540L801 499Z" fill="#1d4e6b" stroke="#1d4e6b"></path><path d="M891 540L891 461L863 458Z" fill="#205a7a" stroke="#205a7a"></path><path d="M960 307L960 208L931 295Z" fill="#1d4e6b" stroke="#1d4e6b"></path><path d="M931 295L889 362L960 363Z" fill="#1d4e6b" stroke="#1d4e6b"></path><path d="M931 295L960 208L919 208Z" fill="#205a7a" stroke="#205a7a"></path><path d="M960 208L960 183L919 208Z" fill="#205a7a" stroke="#205a7a"></path><path d="M960 37L920 0L904 65Z" fill="#277297" stroke="#277297"></path><path d="M904 65L920 0L846 43Z" fill="#0c2435" stroke="#0c2435"></path><path d="M960 363L889 362L906 393Z" fill="#277297" stroke="#277297"></path><path d="M960 183L960 108L889 136Z" fill="#277297" stroke="#277297"></path><path d="M960 418L960 363L906 393Z" fill="#297ea6" stroke="#297ea6"></path><path d="M832 540L891 540L863 458Z" fill="#19435d" stroke="#19435d"></path><path d="M891 461L960 418L906 393Z" fill="#112e42" stroke="#112e42"></path><path d="M960 108L960 37L904 65Z" fill="#246688" stroke="#246688"></path><path d="M960 486L960 418L891 461Z" fill="#205a7a" stroke="#205a7a"></path><path d="M960 37L960 0L920 0Z" fill="#205a7a" stroke="#205a7a"></path><path d="M891 540L960 486L891 461Z" fill="#19435d" stroke="#19435d"></path><path d="M891 540L960 540L960 486Z" fill="#1d4e6b" stroke="#1d4e6b"></path></g></svg>